<svg width="52" height="52" viewBox="0 0 52 52" fill="none" xmlns="http://www.w3.org/2000/svg">
<path d="M26 10.4C17.3875 10.4 10.4 17.3875 10.4 26C10.4 34.6124 17.3875 41.5999 26 41.5999C27.4381 41.5999 28.6 42.7618 28.6 44.2C28.6 45.6381 27.4381 46.7999 26 46.7999C14.5112 46.7999 5.2 37.4887 5.2 26C5.2 14.5112 14.5112 5.19995 26 5.19995C37.4887 5.19995 46.8 14.5112 46.8 26V28.6C46.8 32.9062 43.3062 36.4 39 36.4C36.6194 36.4 34.4825 35.3274 33.0525 33.6456C31.2 35.3518 28.7219 36.4 26 36.4C20.2556 36.4 15.6 31.7443 15.6 26C15.6 20.2556 20.2556 15.6 26 15.6C28.2669 15.6 30.3631 16.3231 32.0694 17.5581C32.5325 17.1518 33.1337 16.9 33.8 16.9C35.2381 16.9 36.4 18.0618 36.4 19.5V28.6C36.4 30.0381 37.5619 31.2 39 31.2C40.4381 31.2 41.6 30.0381 41.6 28.6V26C41.6 17.3875 34.6125 10.4 26 10.4ZM31.2 26C31.2 23.1318 28.8681 20.8 26 20.8C23.1319 20.8 20.8 23.1318 20.8 26C20.8 28.8681 23.1319 31.2 26 31.2C28.8681 31.2 31.2 28.8681 31.2 26Z" fill="black"/>
</svg>
