<svg width="55" height="55" viewBox="0 0 55 55" fill="none" xmlns="http://www.w3.org/2000/svg">
<path d="M20.4445 39.6516C20.4445 39.8234 20.2469 39.9609 19.9977 39.9609C19.7141 39.9867 19.5164 39.8492 19.5164 39.6516C19.5164 39.4797 19.7141 39.3422 19.9633 39.3422C20.2211 39.3164 20.4445 39.4539 20.4445 39.6516ZM17.7719 39.2648C17.7117 39.4367 17.8836 39.6344 18.1414 39.6859C18.3648 39.7719 18.6227 39.6859 18.6742 39.5141C18.7258 39.3422 18.5625 39.1445 18.3047 39.0672C18.0813 39.007 17.832 39.093 17.7719 39.2648ZM21.5703 39.1188C21.3211 39.1789 21.1492 39.3422 21.175 39.5398C21.2008 39.7117 21.4242 39.8234 21.682 39.7633C21.9313 39.7031 22.1031 39.5398 22.0773 39.368C22.0516 39.2047 21.8195 39.093 21.5703 39.1188ZM27.225 6.1875C15.3055 6.1875 6.1875 15.2367 6.1875 27.1562C6.1875 36.6867 12.1859 44.8422 20.7539 47.7125C21.8539 47.9102 22.2406 47.2312 22.2406 46.6727C22.2406 46.1398 22.2148 43.2008 22.2148 41.3961C22.2148 41.3961 16.1992 42.6852 14.9359 38.8352C14.9359 38.8352 13.9563 36.3344 12.5469 35.6898C12.5469 35.6898 10.5789 34.3406 12.6844 34.3664C12.6844 34.3664 14.8242 34.5383 16.0016 36.5836C17.8836 39.9008 21.0375 38.9469 22.2664 38.3797C22.4641 37.0047 23.0227 36.0508 23.6414 35.4836C18.8375 34.9508 13.9906 34.2547 13.9906 25.9875C13.9906 23.6242 14.6437 22.4383 16.0187 20.9258C15.7953 20.3672 15.0648 18.0641 16.2422 15.0906C18.0383 14.532 22.1719 17.4109 22.1719 17.4109C23.8906 16.9297 25.7383 16.6805 27.5687 16.6805C29.3992 16.6805 31.2469 16.9297 32.9656 17.4109C32.9656 17.4109 37.0992 14.5234 38.8953 15.0906C40.0727 18.0727 39.3422 20.3672 39.1188 20.9258C40.4938 22.4469 41.3359 23.6328 41.3359 25.9875C41.3359 34.2805 36.2742 34.9422 31.4703 35.4836C32.2609 36.1625 32.9313 37.4516 32.9313 39.4711C32.9313 42.3672 32.9055 45.9508 32.9055 46.6555C32.9055 47.2141 33.3008 47.893 34.3922 47.6953C42.9859 44.8422 48.8125 36.6867 48.8125 27.1562C48.8125 15.2367 39.1445 6.1875 27.225 6.1875ZM14.5406 35.8273C14.4289 35.9133 14.4547 36.1109 14.6008 36.2742C14.7383 36.4117 14.9359 36.4719 15.0477 36.3602C15.1594 36.2742 15.1336 36.0766 14.9875 35.9133C14.85 35.7758 14.6523 35.7156 14.5406 35.8273ZM13.6125 35.1312C13.5523 35.243 13.6383 35.3805 13.8102 35.4664C13.9477 35.5523 14.1195 35.5266 14.1797 35.4062C14.2398 35.2945 14.1539 35.157 13.982 35.0711C13.8102 35.0195 13.6727 35.0453 13.6125 35.1312ZM16.3969 38.1906C16.2594 38.3023 16.3109 38.5602 16.5086 38.7234C16.7063 38.9211 16.9555 38.9469 17.0672 38.8094C17.1789 38.6977 17.1273 38.4398 16.9555 38.2766C16.7664 38.0789 16.5086 38.0531 16.3969 38.1906ZM15.4172 36.9273C15.2797 37.0133 15.2797 37.2367 15.4172 37.4344C15.5547 37.632 15.7867 37.718 15.8984 37.632C16.0359 37.5203 16.0359 37.2969 15.8984 37.0992C15.7781 36.9016 15.5547 36.8156 15.4172 36.9273Z" fill="black"/>
</svg>
