<svg width="32" height="32" viewBox="0 0 32 32" fill="none" xmlns="http://www.w3.org/2000/svg">
<path d="M22.575 8.00005C21.745 8.00005 20.94 8.22505 20.235 8.63505C19.445 7.83505 18.525 7.16505 17.51 6.66005C18.92 5.46005 20.715 4.80005 22.575 4.80005C26.895 4.80005 30.4 8.30005 30.4 12.625C30.4 14.7 29.575 16.69 28.11 18.155L24.555 21.71C23.09 23.175 21.1 24 19.025 24C14.705 24 11.2 20.5 11.2 16.175C11.2 16.1 11.2 16.025 11.205 15.95C11.23 15.065 11.965 14.37 12.85 14.395C13.735 14.42 14.43 15.155 14.405 16.04C14.405 16.085 14.405 16.13 14.405 16.17C14.405 18.725 16.475 20.795 19.03 20.795C20.255 20.795 21.43 20.31 22.3 19.44L25.855 15.885C26.72 15.02 27.21 13.84 27.21 12.615C27.21 10.06 25.14 7.99005 22.585 7.99005L22.575 8.00005ZM15.36 11.865C15.265 11.825 15.17 11.77 15.085 11.71C14.455 11.385 13.735 11.2 12.98 11.2C11.755 11.2 10.58 11.685 9.71001 12.555L6.15501 16.11C5.29001 16.975 4.80001 18.155 4.80001 19.38C4.80001 21.935 6.87001 24.005 9.42501 24.005C10.25 24.005 11.055 23.785 11.76 23.375C12.55 24.175 13.47 24.845 14.49 25.35C13.08 26.545 11.29 27.21 9.42501 27.21C5.10501 27.21 1.60001 23.71 1.60001 19.385C1.60001 17.31 2.42501 15.32 3.89001 13.855L7.44501 10.3C8.91001 8.83505 10.9 8.01005 12.975 8.01005C17.305 8.01005 20.8 11.54 20.8 15.855C20.8 15.92 20.8 15.985 20.8 16.05C20.78 16.935 20.045 17.63 19.16 17.61C18.275 17.59 17.58 16.855 17.6 15.97C17.6 15.93 17.6 15.895 17.6 15.855C17.6 14.17 16.7 12.69 15.36 11.875V11.865Z" fill="black"/>
</svg>
